<svg width="21" height="21" viewBox="0 0 21 21" fill="none" xmlns="http://www.w3.org/2000/svg">
<path d="M21 3V1.5H18.75V0H17.25V1.5H16.5C15.6727 1.5 15 2.1735 15 3V4.5C15 5.32725 15.6727 6 16.5 6H19.5V7.5H15V9H17.25V10.5H18.75V9H19.5C20.3272 9 21 8.32725 21 7.5V6C21 5.1735 20.3272 4.5 19.5 4.5H16.5V3H21ZM16.5 13.5V15H18.4395L15.75 17.6895L14.031 15.9697C13.8906 15.8293 13.7001 15.7502 13.5015 15.75H13.5C13.3014 15.7502 13.1109 15.8293 12.9705 15.9697L9 19.9395L10.0605 21L13.5007 17.5605L15.2197 19.2803C15.3604 19.4209 15.5511 19.4998 15.75 19.4998C15.9489 19.4998 16.1396 19.4209 16.2803 19.2803L19.5 16.0605V18H21V13.5H16.5ZM1.5 21H0V17.25C0 14.355 2.355 12 5.25 12H9.75C11.2417 12 12.6675 12.6375 13.6627 13.7498L12.5452 14.7502C12.1935 14.3569 11.7627 14.0423 11.2811 13.8268C10.7994 13.6114 10.2777 13.5 9.75 13.5H5.25C3.18225 13.5 1.5 15.1823 1.5 17.25V21ZM7.5 10.5C8.89239 10.5 10.2277 9.94688 11.2123 8.96231C12.1969 7.97774 12.75 6.64239 12.75 5.25C12.75 3.85761 12.1969 2.52226 11.2123 1.53769C10.2277 0.553123 8.89239 0 7.5 0C6.10761 0 4.77226 0.553123 3.78769 1.53769C2.80312 2.52226 2.25 3.85761 2.25 5.25C2.25 6.64239 2.80312 7.97774 3.78769 8.96231C4.77226 9.94688 6.10761 10.5 7.5 10.5ZM7.5 1.5C8.49456 1.5 9.44839 1.89509 10.1517 2.59835C10.8549 3.30161 11.25 4.25544 11.25 5.25C11.25 6.24456 10.8549 7.19839 10.1517 7.90165C9.44839 8.60491 8.49456 9 7.5 9C6.50544 9 5.55161 8.60491 4.84835 7.90165C4.14509 7.19839 3.75 6.24456 3.75 5.25C3.75 4.25544 4.14509 3.30161 4.84835 2.59835C5.55161 1.89509 6.50544 1.5 7.5 1.5Z" fill="#454545"/>
</svg>
